<svg xmlns="http://www.w3.org/2000/svg" width="67.106" height="86.387" viewBox="0 0 67.106 86.387">
  <g id="Group_563" data-name="Group 563" transform="translate(128.5 169.5)">
    <path id="Path_20281" data-name="Path 20281" d="M-63.271-133.192a1.378,1.378,0,0,0,1.377-1.377v-8.263a1.378,1.378,0,0,0-1.377-1.377h-8.263a1.362,1.362,0,0,0-1.347,1.23l-16.557-8.278v-3.969a1.378,1.378,0,0,0-1.377-1.377H-93.57V-164.3l4.535,4.535,1.947-1.947-6.886-6.886a1.375,1.375,0,0,0-1.947,0l-6.886,6.886,1.947,1.947,4.535-4.535v7.693h-2.754a1.378,1.378,0,0,0-1.377,1.377v3.969l-16.557,8.278a1.362,1.362,0,0,0-1.347-1.23h-8.263A1.378,1.378,0,0,0-128-142.832v8.263a1.378,1.378,0,0,0,1.377,1.377h2.754v13.772h-2.754A1.378,1.378,0,0,0-128-118.043v8.263a1.378,1.378,0,0,0,1.377,1.377h8.263a1.362,1.362,0,0,0,1.347-1.23l16.557,8.278v3.969a1.378,1.378,0,0,0,1.377,1.377h2.754v7.693l-4.535-4.535-1.947,1.947,6.886,6.886a1.377,1.377,0,0,0,.974.4,1.376,1.376,0,0,0,.974-.4l6.886-6.886-1.947-1.947-4.535,4.535v-7.693h2.754a1.378,1.378,0,0,0,1.377-1.377v-3.969l16.557-8.278a1.362,1.362,0,0,0,1.347,1.23h8.263a1.378,1.378,0,0,0,1.377-1.377v-8.263a1.378,1.378,0,0,0-1.377-1.377h-2.754v-13.772Zm-6.886-8.263h5.509v5.509h-5.509ZM-97.7-153.85h5.509v5.509H-97.7Zm-1.377,8.263h8.263a1.378,1.378,0,0,0,1.377-1.377v-1.215l16.526,8.263v2.43l-16.557,8.278a1.362,1.362,0,0,0-1.347-1.23h-8.263a1.362,1.362,0,0,0-1.347,1.23l-16.557-8.278v-2.43l16.526-8.263v1.215a1.378,1.378,0,0,0,1.377,1.377Zm1.377,23.412v-5.509h5.509v5.509Zm-27.544-19.281h5.509v5.509h-5.509Zm5.509,30.3h-5.509v-5.509h5.509Zm2.754-1.539v-5.347a1.378,1.378,0,0,0-1.377-1.377h-2.754v-13.772h2.754a1.362,1.362,0,0,0,1.347-1.23l16.557,8.278v5.347a1.378,1.378,0,0,0,1.377,1.377h2.754v12.395h-2.754a1.378,1.378,0,0,0-1.377,1.377v1.215Zm24.79,13.934H-97.7v-5.509h5.509Zm27.544-12.395h-5.509v-5.509h5.509Zm-4.132-8.263h-2.754a1.378,1.378,0,0,0-1.377,1.377v5.347l-16.526,8.263v-1.215a1.378,1.378,0,0,0-1.377-1.377H-93.57V-119.42h2.754a1.378,1.378,0,0,0,1.377-1.377v-5.347l16.557-8.278a1.362,1.362,0,0,0,1.347,1.23h2.754Zm0,0" transform="translate(0 0)" fill="#004a9c" stroke="#fff" stroke-width="1"/>
  </g>
</svg>
