<svg xmlns="http://www.w3.org/2000/svg" width="80" height="80" viewBox="0 0 80 80">
  <g id="Group_561" data-name="Group 561" transform="translate(176 176)">
    <path id="Path_20268" data-name="Path 20268" d="M-67.667-32.667h-10c-2.333,0-5-2-5-6v-7A11.575,11.575,0,0,0-87-54.333,23.04,23.04,0,0,1-96-73,23.723,23.723,0,0,1-73-96a23.423,23.423,0,0,1,16.667,6.667,23.731,23.731,0,0,1,7,16.667,22.413,22.413,0,0,1-8.667,18,12.173,12.173,0,0,0-4.666,9.334v7.667a5.126,5.126,0,0,1-5,5Zm-5-60c-10.666,0-19.666,9-20,19.666A19.592,19.592,0,0,0-85-57a14.53,14.53,0,0,1,5.666,11.334v7c0,.666,0,2.667,1.667,2.667h10A1.574,1.574,0,0,0-66-37.667v-7.667a16.2,16.2,0,0,1,6-12,19.439,19.439,0,0,0,7.333-15.334,19.926,19.926,0,0,0-6-14.334,19.649,19.649,0,0,0-14-5.666Zm0,0" transform="translate(-63.333 -63.333)" fill="#004a9c"/>
    <path id="Path_20269" data-name="Path 20269" d="M-13.667,147.333H-30.333A1.574,1.574,0,0,1-32,145.667,1.574,1.574,0,0,1-30.333,144h16.667A1.574,1.574,0,0,1-12,145.667a1.574,1.574,0,0,1-1.667,1.667Zm0,0" transform="translate(-114 -253.333)" fill="#004a9c"/>
    <path id="Path_20270" data-name="Path 20270" d="M9.667-166A1.574,1.574,0,0,1,8-167.667v-6.667A1.574,1.574,0,0,1,9.667-176a1.574,1.574,0,0,1,1.667,1.667v6.667A1.574,1.574,0,0,1,9.667-166Zm0,0" transform="translate(-145.667 0)" fill="#004a9c"/>
    <path id="Path_20271" data-name="Path 20271" d="M116.234-112.967a2,2,0,0,1-1.333-.334,1.611,1.611,0,0,1,0-2.333l4.666-4.666a1.609,1.609,0,0,1,2.333,0,1.609,1.609,0,0,1,0,2.333l-4.666,4.666a3.352,3.352,0,0,1-1,.334Zm0,0" transform="translate(-229.901 -43.699)" fill="#004a9c"/>
    <path id="Path_20272" data-name="Path 20272" d="M168.333,11.333h-6.667A1.574,1.574,0,0,1,160,9.667,1.574,1.574,0,0,1,161.667,8h6.667A1.574,1.574,0,0,1,170,9.667a1.574,1.574,0,0,1-1.667,1.667Zm0,0" transform="translate(-266 -145.667)" fill="#004a9c"/>
    <path id="Path_20273" data-name="Path 20273" d="M120.9,123.833a2,2,0,0,1-1.334-.334l-4.666-4.666a1.65,1.65,0,1,1,2.333-2.334l4.666,4.667a1.609,1.609,0,0,1,0,2.333c0,.334-.333.334-1,.334Zm0,0" transform="translate(-229.901 -231.166)" fill="#004a9c"/>
    <path id="Path_20274" data-name="Path 20274" d="M-120.566,123.833a2,2,0,0,1-1.333-.334,1.611,1.611,0,0,1,0-2.333l4.666-4.667a1.612,1.612,0,0,1,2.334,0,1.612,1.612,0,0,1,0,2.334l-4.667,4.666a1.223,1.223,0,0,1-1,.334Zm0,0" transform="translate(-42.434 -231.166)" fill="#004a9c"/>
    <path id="Path_20275" data-name="Path 20275" d="M-167.667,11.333h-6.667A1.574,1.574,0,0,1-176,9.667,1.574,1.574,0,0,1-174.333,8h6.667A1.574,1.574,0,0,1-166,9.667a1.574,1.574,0,0,1-1.667,1.667Zm0,0" transform="translate(0 -145.667)" fill="#004a9c"/>
    <path id="Path_20276" data-name="Path 20276" d="M-115.9-114.233a2,2,0,0,1-1.334-.334l-4.666-5a1.611,1.611,0,0,1,0-2.333,1.611,1.611,0,0,1,2.333,0l4.667,4.666a1.612,1.612,0,0,1,0,2.334c-.334.333-.668.666-1,.666Zm0,0" transform="translate(-42.434 -42.434)" fill="#004a9c"/>
    <path id="Path_20277" data-name="Path 20277" d="M23-39.333A1.574,1.574,0,0,1,21.333-41,11.811,11.811,0,0,0,9.667-52.667,1.574,1.574,0,0,1,8-54.333,1.574,1.574,0,0,1,9.667-56a14.938,14.938,0,0,1,15,15A1.574,1.574,0,0,1,23-39.333Zm0,0" transform="translate(-145.667 -95)" fill="#004a9c"/>
  </g>
</svg>
