<svg xmlns="http://www.w3.org/2000/svg" width="84.374" height="84.374" viewBox="0 0 84.374 84.374">
  <g id="Group_562" data-name="Group 562" transform="translate(-8 -8)">
    <path id="Path_20278" data-name="Path 20278" d="M233.526,228.083H230.8v-2.722a1.361,1.361,0,0,0-2.722,0v2.722h-2.722a1.361,1.361,0,0,0,0,2.722h2.722v2.722a1.361,1.361,0,0,0,2.722,0V230.8h2.722a1.361,1.361,0,0,0,0-2.722Z" transform="translate(-179.257 -179.257)" fill="#004a9c"/>
    <path id="Path_20279" data-name="Path 20279" d="M91.013,48.826h-8.2A32.7,32.7,0,0,0,51.548,17.56v-8.2a1.361,1.361,0,1,0-2.722,0v8.2A32.7,32.7,0,0,0,17.56,48.826h-8.2a1.361,1.361,0,1,0,0,2.722h8.2A32.7,32.7,0,0,0,48.826,82.813v8.2a1.361,1.361,0,0,0,2.722,0v-8.2A32.7,32.7,0,0,0,82.813,51.548h8.2a1.361,1.361,0,1,0,0-2.722ZM51.548,80.092V71.961a1.361,1.361,0,1,0-2.722,0v8.131A29.974,29.974,0,0,1,20.282,51.548h8.131a1.361,1.361,0,0,0,0-2.722H20.282A29.974,29.974,0,0,1,48.826,20.282v8.131a1.361,1.361,0,0,0,2.722,0V20.282A29.974,29.974,0,0,1,80.092,48.826H71.961a1.361,1.361,0,0,0,0,2.722h8.131A29.974,29.974,0,0,1,51.548,80.092Z" transform="translate(0 0)" fill="#004a9c"/>
    <path id="Path_20280" data-name="Path 20280" d="M182.969,168a14.969,14.969,0,1,0,14.969,14.969A14.969,14.969,0,0,0,182.969,168Zm0,27.217a12.248,12.248,0,1,1,12.248-12.248A12.248,12.248,0,0,1,182.969,195.217Z" transform="translate(-132.783 -132.783)" fill="#004a9c"/>
  </g>
</svg>
