<svg xmlns="http://www.w3.org/2000/svg" width="48.388" height="41.399" viewBox="0 0 48.388 41.399">
  <g id="Group_519" data-name="Group 519" transform="translate(0.5 0.688)">
    <path id="Path_20015" data-name="Path 20015" d="M121.408,227.373l1.737-2.962,5.767,3.33a3.328,3.328,0,0,0,1.666.45,3.362,3.362,0,0,0,2.325-.935l.154-.149.194.09a5.191,5.191,0,0,0,2.164.479,5.252,5.252,0,0,0,1.357-.18,5.192,5.192,0,0,0,2.82-1.91l.166-.223,1.585.915a.344.344,0,0,0,.47-.126l4.869-8.433a.345.345,0,0,0-.125-.471L117.3,200.357a3.355,3.355,0,0,0-4.568,1.224l-5.611,9.717a3.355,3.355,0,0,0,1.225,4.569l10.3,5.948-1.719,2.931a2.679,2.679,0,0,1-2.291,1.313h-6.17v-4.776a.344.344,0,0,0-.344-.344h-3.876v-1.16a2.6,2.6,0,0,0-2.595-2.594H99.687a.344.344,0,0,0-.344.344v22.25a.344.344,0,0,0,.344.344h1.969a2.6,2.6,0,0,0,2.594-2.595v-2.4h3.876a.344.344,0,0,0,.344-.344v-3.539h6.17A7.912,7.912,0,0,0,121.408,227.373ZM103.563,237.53a1.912,1.912,0,0,1-1.906,1.906h-1.626V217.874h1.625a1.912,1.912,0,0,1,1.907,1.906Zm4.22-3.086h-3.532V221.628h3.532Zm31.163-9.138a4.494,4.494,0,0,1-.991.911h.915l-2.272.614a4.507,4.507,0,0,1-1.177.157,4.449,4.449,0,0,1-1.132-.147h-.176l.089-.024q-.2-.057-.4-.134l-.34-.132,2.092-3.622,3.622,2.091Zm-25.617-23.381a2.665,2.665,0,0,1,3.629-.972l28.959,16.72-4.524,7.836-31.26-18.048Zm-4.638,13.347a2.664,2.664,0,0,1-.973-3.629l2.069-3.586,25.167,14.53-2.077,3.6c-.036.06-.076.121-.118.182v0l-.064.087a2.666,2.666,0,0,1-3.438.687h0Zm-.221,11.477h6.17a3.373,3.373,0,0,0,2.885-1.654l1.723-2.935,3.3,1.907-1.738,2.959a7.214,7.214,0,0,1-6.173,3.536h-6.17Z" transform="translate(-99.343 -199.913)" fill="#ffd400" stroke="#ffd400" stroke-width="1"/>
    <g id="Ellipse_9" data-name="Ellipse 9" transform="translate(36.896 16.452)" fill="none" stroke="#ffd400" stroke-width="1">
      <ellipse cx="2" cy="2.5" rx="2" ry="2.5" stroke="none"/>
      <ellipse cx="2" cy="2.5" rx="1.5" ry="2" fill="none"/>
    </g>
    <line id="Line_10" data-name="Line 10" x2="5.519" y2="3.219" transform="translate(11.267 12.11)" fill="none" stroke="#ffd400" stroke-linecap="round" stroke-width="1"/>
  </g>
</svg>
