<svg xmlns="http://www.w3.org/2000/svg" width="23.374" height="31.03" viewBox="0 0 23.374 31.03">
  <g id="Group_512" data-name="Group 512" transform="translate(0.75 0.75)">
    <path id="Path_20005" data-name="Path 20005" d="M301.995,449.418" transform="translate(-296.241 -441.382)" fill="none" stroke="#ffd400" stroke-miterlimit="10" stroke-width="1.5"/>
    <path id="Path_20006" data-name="Path 20006" d="M305.125,433.221h2.853v-4.185a8.036,8.036,0,1,0-16.072,0v4.185h2.853" transform="translate(-289.005 -421)" fill="none" stroke="#ffd400" stroke-miterlimit="10" stroke-width="1.5"/>
    <path id="Path_20007" data-name="Path 20007" d="M301.81,464.216H283.36a1.7,1.7,0,0,0-1.712,1.712v13.885a1.7,1.7,0,0,0,1.712,1.712h18.45a1.7,1.7,0,0,0,1.712-1.712V465.88A1.7,1.7,0,0,0,301.81,464.216Z" transform="translate(-281.648 -451.995)" fill="none" stroke="#ffd400" stroke-miterlimit="10" stroke-width="1.5"/>
    <path id="Path_20008" data-name="Path 20008" d="M316.964,484.4a2.187,2.187,0,0,0-4.375,0,2.206,2.206,0,0,0,1,1.807l-.666,3.091h3.614l-.666-3.091A2.084,2.084,0,0,0,316.964,484.4Z" transform="translate(-303.839 -464.9)" fill="none" stroke="#ffd400" stroke-miterlimit="10" stroke-width="1.5"/>
  </g>
</svg>
