<svg xmlns="http://www.w3.org/2000/svg" width="38.875" height="34.707" viewBox="0 0 38.875 34.707">
  <g id="Group_43999" data-name="Group 43999" transform="translate(0.762 0.75)">
    <g id="Group_456" data-name="Group 456" transform="translate(12.855 0)">
      <g id="Group_455" data-name="Group 455">
        <path id="Path_19998" data-name="Path 19998" d="M324.575,57.04a2.954,2.954,0,1,1-2.954-2.954A2.947,2.947,0,0,1,324.575,57.04Z" transform="translate(-315.306 -54.086)" fill="none" stroke="#ffd400" stroke-miterlimit="10" stroke-width="1.5"/>
        <path id="Path_19999" data-name="Path 19999" d="M322.383,79.751a6.417,6.417,0,0,0-12.833,0Z" transform="translate(-309.55 -66.301)" fill="none" stroke="#ffd400" stroke-miterlimit="10" stroke-width="1.5"/>
      </g>
    </g>
    <path id="Path_20000" data-name="Path 20000" d="M356.215,102.887a2.959,2.959,0,1,1-1.186-2.364A2.949,2.949,0,0,1,356.215,102.887Z" transform="translate(-322.427 -83.032)" fill="none" stroke="#ffd400" stroke-miterlimit="10" stroke-width="1.5"/>
    <path id="Path_20001" data-name="Path 20001" d="M289.706,102.887a2.955,2.955,0,1,1-2.954-2.954A2.956,2.956,0,0,1,289.706,102.887Z" transform="translate(-280.437 -83.032)" fill="none" stroke="#ffd400" stroke-miterlimit="10" stroke-width="1.5"/>
    <path id="Path_20002" data-name="Path 20002" d="M287.513,125.6H274.68a6.417,6.417,0,0,1,12.833,0Z" transform="translate(-274.68 -95.245)" fill="none" stroke="#ffd400" stroke-miterlimit="10" stroke-width="1.5"/>
    <path id="Path_20003" data-name="Path 20003" d="M354.022,125.6H341.189a6.417,6.417,0,0,1,12.833,0Z" transform="translate(-316.671 -95.245)" fill="none" stroke="#ffd400" stroke-miterlimit="10" stroke-width="1.5"/>
    <path id="Path_20004" data-name="Path 20004" d="M310.7,83.114a2.951,2.951,0,0,0,4.723,2.366v2.03a6.422,6.422,0,0,0-8.084,6.1h8.084v2.856H287.569V93.609h8.081a6.42,6.42,0,0,0-8.081-6.1V85.623a2.955,2.955,0,1,0,0-5.016V68.615h12.7a2.947,2.947,0,0,0,3.442,0H315.42V80.75a2.952,2.952,0,0,0-4.723,2.364Z" transform="translate(-282.818 -63.259)" fill="none" stroke="#ffd400" stroke-miterlimit="10" stroke-width="1.5"/>
  </g>
</svg>
