<svg xmlns="http://www.w3.org/2000/svg" width="34.763" height="28.668" viewBox="0 0 34.763 28.668">
  <g id="Group_518" data-name="Group 518" transform="translate(0.604 1)">
    <path id="Path_20009" data-name="Path 20009" d="M280.425,754.527m33.014-.572a.388.388,0,0,0-.071-.053,27.855,27.855,0,0,0-33.409,0m16.7-4.78,12.1,10.751a.393.393,0,0,0-.093-.076,20,20,0,0,0-24.021,0m12.01-3.223,7.3,8.714h0a12.158,12.158,0,0,0-14.609,0m7.3,4.228a2.745,2.745,0,1,0,2.746,2.745A2.751,2.751,0,0,0,296.663,769.516Z" transform="translate(-279.959 -748.338)" fill="none" stroke="#ffd400" stroke-miterlimit="10" stroke-width="2"/>
  </g>
</svg>
